<svg width="32" height="32" viewBox="0 0 32 32" fill="none" xmlns="http://www.w3.org/2000/svg">
<mask id="mask0_23_1343" style="mask-type:alpha" maskUnits="userSpaceOnUse" x="0" y="0" width="32" height="32">
<rect width="32" height="32" fill="#D9D9D9"/>
</mask>
<g mask="url(#mask0_23_1343)">
<path d="M18.7182 26.8126V24.7459C20.6412 24.134 22.1904 23.0229 23.3656 21.4126C24.5408 19.8024 25.1284 17.987 25.1284 15.9665C25.1284 13.946 24.5408 12.1306 23.3656 10.5203C22.1904 8.91006 20.6412 7.79895 18.7182 7.187V5.12036C21.2002 5.78532 23.2224 7.11779 24.7848 9.11779C26.3471 11.1178 27.1283 13.4007 27.1283 15.9665C27.1283 18.5323 26.3471 20.8152 24.7848 22.8151C23.2224 24.8151 21.2002 26.1476 18.7182 26.8126ZM4.87207 19.3331V12.6665H9.82074L15.5386 6.94863V25.051L9.82074 19.3331H4.87207ZM18.7182 20.8716V11.0614C19.6173 11.5502 20.3122 12.2387 20.8027 13.1267C21.2933 14.0148 21.5386 14.9725 21.5386 15.9998C21.5386 17.0135 21.2912 17.9566 20.7963 18.8293C20.3015 19.7019 19.6087 20.3827 18.7182 20.8716ZM13.5387 11.7998L10.672 14.6665H6.872V17.3331H10.672L13.5387 20.1998V11.7998Z" fill="white" fill-opacity="0.5"/>
</g>
</svg>
